<svg id="Layer_1" data-name="Layer 1" xmlns="http://www.w3.org/2000/svg" viewBox="0 0 182.97 300"><title>logo-1</title><path d="M308.32,331.86a4.39,4.39,0,0,0-4.38,4.39c0,2.43,3.68,7.17,6.1,7.17s6.12-1,4.34-6.33c-.77-2.3-3.63-5.23-6.06-5.23" transform="translate(-276.02 -142.54)"/><path d="M321.38,344.25a2.5,2.5,0,1,0,2.5,2.5,2.5,2.5,0,0,0-2.5-2.5" transform="translate(-276.02 -142.54)"/><path d="M372.37,359.75c-5.4,0-2.4,6.37-2.4,11.77s5.16,6.56,10.56,6.56,1.72-2.6,1.72-8-4.48-10.33-9.88-10.33" transform="translate(-276.02 -142.54)"/><path d="M407.25,332.09c-5.52,0-6.67,4.47-6.67,10s3.07,14.18,6.67,10c4.11-4.77,9.39-7.9,9.39-13.42s-3.87-6.57-9.39-6.57" transform="translate(-276.02 -142.54)"/><path d="M457.69,165.27A21,21,0,0,0,453,157a17.22,17.22,0,0,0-9.51-5.32,26.18,26.18,0,0,0-5.19-.52,39.54,39.54,0,0,0-4.11.26c-.94.09-1.83.18-2.68.18-1.86,0-4.47-.43-9.69-3.61a35.89,35.89,0,0,0-5.55-2.49c-1.13-.44-2.29-.89-3-1.23a16,16,0,0,0-7.46-1.72c-14.35,0-33.2,16.5-35.42,18.49l-.51.56c-7.25,9-21.78,15.72-23.49,16.5l-.23.12c-1.79,1-44.15,24.41-62.35,52.78-15.14,23.58-4.78,40.52,1.13,47.35A91.61,91.61,0,0,0,297.83,294h0s6,8.22,6.55,18.11c0,0-1.67,15.55,5.33,17.22s7.56-6.55,7.56-6.55.44-4.23.55-6.23c0,0,.89-3.44,5.56-2.55s5.66,5.66,5.66,5.66.72,28.72,3.72,42.39c2.2,10,5.19,13,7.95,14.46a6.82,6.82,0,0,0,7-.37c2.29-1.59,4.48-4.76,3.51-11.09-1.83-12-6.67-50.66,6-48.66,9.23,1.46,11.22,11.79,11.58,16.92.23,3.27.9,9,2.08,12,2,5.11,5.26,8.09,9.67,6.38,0,0,12.5-.83,0-36.75,0,0-2.17-6.07,6.16-8.4,6.05-1.7,9.63,6.25,11.15,10.75a10.11,10.11,0,0,0,5.79,6.25c2.86,1.12,6.2.84,7.8-5.12a19.46,19.46,0,0,0-.17-10.46c-1.67-5.75-3.73-18.81,6-32.54q1.59-1.94,3.16-4l0,0a15.19,15.19,0,0,0,1.91-2.59c9.46-13.12,17.9-29.88,23.52-51.25,0,0,5.25-16.15,10.65-27.77a20.16,20.16,0,0,0,1.56-5c.75-4.42,1.69-12.82-.43-19.49m-3.94,13.14-.05.2-.1.17a47.42,47.42,0,0,1-5.68,8.16,35,35,0,0,0-5.59,9.26c-4.86,11.86-14.48,33.27-24.32,43.32-.28.35-38.84,46.1-92.62,46.1a98.27,98.27,0,0,1-30.31-4.86,15.44,15.44,0,0,1-6.63-4.3c-5.16-5.65-15.61-21.21-1.36-43.41,17.69-27.57,59.21-50.53,61-51.49.31-.15,16.64-7.4,24.85-17.57l.1-.12.12-.1c.79-.71,19.55-17.41,32.74-17.41a12.34,12.34,0,0,1,5.7,1.29c.86.44,2.08.91,3.37,1.42a32.43,32.43,0,0,1,4.91,2.18c6,3.67,9.29,4.16,11.68,4.16,1,0,2-.1,3.06-.2s2.36-.23,3.73-.23a22.53,22.53,0,0,1,4.45.44,13.55,13.55,0,0,1,7.42,4.14c3.07,3.38,6.19,9.39,3.56,18.85" transform="translate(-276.02 -142.54)"/><path d="M439.39,153.83l-2.31,0-10,.84-7.79-4.55,0,0-.52-.15c.71.33.06,3.63-4.5,10-4.9,6.86-27.77,15.78-36.22,18.9l-3.05,1.11h0c-13.25,4.93-28.54,11.52-39.12,22.36C310.1,228.9,303.39,257,309.75,264l9.43-8.2-4.41-3.25,2.1-1.79h0l2.44-2.09c-.65-1.2.29-3.31,2.39-5.11,2.45-2.08,5.56-3,7-2s.6,3.49-1.84,5.61c-2.12,1.82-4.74,2.75-6.34,2.34L318,251.56l3.25,2.37,20-17.42-7.64-5.09-2.31,2c.67,1.13-.19,3.14-2.23,4.89-2.41,2-5.52,2.94-6.91,2s-.53-3.41,1.87-5.42c2-1.72,4.56-2.58,6.11-2.22l2.31-1.95h0l1.94-1.64,8.81,5.81,8-7L341,221.28c-2.07,1.35-4.42,1.86-5.6,1.1-1.36-.88-.61-3.12,1.65-5s5.15-2.66,6.51-1.81c1.18.73.84,2.45-.69,4.12l10.33,6.51,5.62-4.89-17.86-11c-2,1.29-4.3,1.78-5.44,1.07-1.32-.83-.6-2.95,1.59-4.72s5-2.54,6.34-1.75c1.15.69.81,2.33-.67,3.91l17.87,10.88,4.45-3.86-16.82-10,.9-.74.88-.73,12.47-10.27c-.69-.92,0-2.55,1.68-4,2-1.64,4.71-2.37,6.07-1.64s.85,2.67-1.16,4.34c-1.72,1.43-4,2.19-5.46,1.9L351.19,205l15.69,9.29,13.64-11.85-7.74-4.3-4.09,3.47c.73,1,.09,2.7-1.69,4.22-2.1,1.79-5,2.59-6.36,1.77s-.8-2.92,1.3-4.68c1.78-1.5,4.09-2.27,5.59-2l4.08-3.45.85-.71.84-.71,8.9,4.9,5.24-4.55-11.13-6,.82-.69.82-.69,4-3.39c-.73-.88-.17-2.45,1.47-3.82,1.9-1.59,4.55-2.3,5.93-1.6s1,2.57-.92,4.18a7.21,7.21,0,0,1-5.32,1.84l-4,3.41,10,5.31,10.15-8.82c-.78-.89-.29-2.48,1.3-3.86,1.86-1.6,4.51-2.32,5.94-1.62s1.12,2.6-.73,4.22a7,7,0,0,1-5.31,1.86l-10.15,8.86,10.84,5.78c1.85-1.26,4.08-1.74,5.37-1.06,1.52.8,1.19,2.9-.77,4.69s-4.82,2.61-6.34,1.79c-1.3-.71-1.19-2.37.11-3.95l-10.85-5.82L376.5,207.7l21.8,12.4-1.72,1.61h0l-3.83,3.57c.86,1.11.29,3.09-1.53,4.8-2.15,2-5.2,2.9-6.77,1.95s-1.06-3.33,1.09-5.32c1.83-1.68,4.27-2.54,5.91-2.19l3.83-3.56L374.77,209.2l-3.89,3.4,6.24,3.64c2-1.33,4.28-1.83,5.56-1.1,1.5.86,1,3.11-1.09,5s-5.1,2.77-6.6,1.87c-1.28-.76-1.06-2.54.37-4.22l-6.24-3.67-22,19.2,5.31,3.46,2.37-2.11c-.74-1.14,0-3.14,2-4.85,2.25-2,5.25-2.83,6.73-1.91s.88,3.3-1.37,5.31c-1.94,1.74-4.46,2.62-6.08,2.24l-2.37,2.12-1,.86-1,.86-6.54-4.3-2.61,2.28L357,246.89l3.23-2.94c-.78-1.2,0-3.29,1.93-5.07,2.28-2.07,5.35-3,6.88-2s.95,3.46-1.33,5.56c-2,1.81-4.54,2.73-6.21,2.33l-3.23,3-1,.9-1,.9L340.59,239l-9.68,8.43,6.06,4.25c2.23-1.54,4.74-2.09,6-1.21,1.5,1,.74,3.66-1.7,5.87s-5.72,3.19-7.21,2.12c-1.28-.92-.84-3,.85-5l-6.05-4.29-18,15.67c10.71,6.3,64.73-7.49,91.55-37.73,12-13.49,14.73-27.5,14.13-37.91.44-7.07,2.2-20.41,9.41-25.85,7.52-5.66,13.41-9.11,14.36-9Z" transform="translate(-276.02 -142.54)"/><path d="M302.47,432.1a6.06,6.06,0,0,1-6.32,6.33H289.3v3.87h-6.14V425.78h13A6.05,6.05,0,0,1,302.47,432.1Zm-6.13,0c0-1.13-.76-1.13-1.37-1.13H289.3v2.27H295C295.58,433.24,296.34,433.24,296.34,432.1Z" transform="translate(-276.02 -142.54)"/><path d="M314.8,439.33h-7l-1.13,3h-6.76l6.85-16.52h9.12l6.84,16.52h-6.75Zm-1.61-4.25L311.28,430l-1.91,5.05Z" transform="translate(-276.02 -142.54)"/><path d="M342.46,432.1a6.06,6.06,0,0,1-6.32,6.33h-6.85v3.87h-6.14V425.78h13A6.05,6.05,0,0,1,342.46,432.1Zm-6.14,0c0-1.13-.75-1.13-1.36-1.13h-5.67v2.27H335C335.57,433.24,336.32,433.24,336.32,432.1Z" transform="translate(-276.02 -142.54)"/><path d="M354.78,439.33h-7l-1.13,3h-6.76l6.85-16.52h9.11l6.85,16.52h-6.75Zm-1.6-4.25L351.27,430l-1.92,5.05Z" transform="translate(-276.02 -142.54)"/><path d="M357.24,425.78h7.08l4.39,6.13,4.39-6.13h7.09l-8.41,11.09v5.43h-6.14v-5.43Z" transform="translate(-276.02 -142.54)"/><path d="M389.67,439.33h-7l-1.13,3h-6.76l6.85-16.52h9.11l6.85,16.52h-6.75Zm-1.6-4.25L386.16,430l-1.92,5.05Z" transform="translate(-276.02 -142.54)"/><path d="M402.84,439.14v3.16h-4v-3.16Z" transform="translate(-276.02 -142.54)"/><path d="M413.73,428.16c5.19,0,8.85,1.7,9.51,5.79h-4.13c-.54-1.8-2.45-2.41-5.38-2.41-3.47,0-5.6.92-5.6,3.82s2.13,3.8,5.6,3.8c2.93,0,4.84-.61,5.38-2.4h4.13c-.66,4.08-4.32,5.78-9.51,5.78-5.76,0-9.64-2.08-9.64-7.18S408,428.16,413.73,428.16Z" transform="translate(-276.02 -142.54)"/><path d="M424.4,435.36c0-5.12,3.87-7.2,9.63-7.2s9.63,2.08,9.63,7.2-3.89,7.18-9.63,7.18S424.4,440.46,424.4,435.36Zm15.2,0c0-2.9-1.84-3.82-5.57-3.82s-5.6.92-5.6,3.82,1.85,3.8,5.6,3.8S439.6,438.24,439.6,435.36Z" transform="translate(-276.02 -142.54)"/></svg>