<svg id="Layer_1" data-name="Layer 1" xmlns="http://www.w3.org/2000/svg" viewBox="0 0 233.05 300"><defs><style>.cls-1{fill:#231f20;}</style></defs><title>logo-2</title><path class="cls-1" d="M345.57,357.46a5.59,5.59,0,0,0-5.59,5.59c0,3.09,4.7,9.13,7.78,9.13s7.79-1.27,5.52-8.07c-1-2.92-4.62-6.65-7.71-6.65" transform="translate(-304.42 -116.33)"/><path class="cls-1" d="M362.2,373.24a3.19,3.19,0,1,0,3.18,3.18,3.19,3.19,0,0,0-3.18-3.18" transform="translate(-304.42 -116.33)"/><path class="cls-1" d="M427.14,393c-6.88,0-3.06,8.12-3.06,15s6.58,8.35,13.45,8.35,2.2-3.32,2.2-10.19S434,393,427.14,393" transform="translate(-304.42 -116.33)"/><path class="cls-1" d="M471.57,357.75c-7,0-8.49,5.7-8.49,12.73s3.9,18.07,8.49,12.74c5.23-6.09,12-10.07,12-17.1s-4.93-8.37-12-8.37" transform="translate(-304.42 -116.33)"/><path class="cls-1" d="M535.81,145.28a26.7,26.7,0,0,0-5.95-10.55A21.92,21.92,0,0,0,517.75,128a33,33,0,0,0-6.61-.66,51.47,51.47,0,0,0-5.23.32c-1.2.12-2.33.23-3.41.23-2.38,0-5.7-.55-12.35-4.59a45.46,45.46,0,0,0-7.06-3.18c-1.44-.55-2.93-1.13-3.77-1.57a20.46,20.46,0,0,0-9.51-2.18c-18.28,0-42.28,21-45.11,23.54l-.65.72c-9.23,11.43-27.74,20-29.92,21l-.29.14c-2.28,1.26-56.23,31.1-79.42,67.23-19.27,30-6.08,51.62,1.45,60.31a116.62,116.62,0,0,0,16.33,19.92h0s7.64,10.47,8.35,23.07c0,0-2.13,19.81,6.79,21.93s9.62-8.35,9.62-8.35.57-5.37.71-7.92c0,0,1.13-4.39,7.07-3.26S372,341.9,372,341.9s.92,36.58,4.74,54c2.79,12.73,6.61,16.6,10.12,18.43a8.71,8.71,0,0,0,9-.48c2.91-2,5.7-6.06,4.47-14.13-2.34-15.28-8.49-64.52,7.64-62,11.76,1.85,14.29,15,14.75,21.56.3,4.16,1.15,11.4,2.65,15.29,2.52,6.52,6.7,10.31,12.31,8.14,0,0,15.92-1.06,0-46.81,0,0-2.76-7.73,7.85-10.71,7.7-2.15,12.27,8,14.2,13.7a12.87,12.87,0,0,0,7.37,8c3.65,1.43,7.9,1.07,9.94-6.53a24.57,24.57,0,0,0-.22-13.31c-2.13-7.32-4.75-24,7.61-41.44q2-2.47,4-5.1l0-.05a19.42,19.42,0,0,0,2.43-3.28c12-16.72,22.81-38.07,30-65.28,0,0,6.68-20.57,13.57-35.38a25.47,25.47,0,0,0,2-6.39c1-5.63,2.15-16.33-.55-24.82m-5,16.74-.07.24-.12.23a61.79,61.79,0,0,1-7.24,10.39,44.18,44.18,0,0,0-7.11,11.8c-6.19,15.1-18.45,42.37-31,55.17-.35.44-49.46,58.71-118,58.71a125,125,0,0,1-38.61-6.19,19.61,19.61,0,0,1-8.44-5.47c-6.57-7.2-19.89-27-1.73-55.29,22.53-35.11,75.41-64.36,77.65-65.59.4-.18,21.2-9.42,31.66-22.38l.12-.15.15-.13c1-.9,24.91-22.16,41.7-22.16a15.67,15.67,0,0,1,7.27,1.64c1.09.56,2.65,1.16,4.29,1.8a42.85,42.85,0,0,1,6.25,2.78c7.67,4.67,11.83,5.3,14.88,5.3,1.31,0,2.57-.12,3.89-.25a45.42,45.42,0,0,1,4.75-.3,28.83,28.83,0,0,1,5.67.56,17.12,17.12,0,0,1,9.45,5.28c3.92,4.3,7.88,12,4.54,24" transform="translate(-304.42 -116.33)"/><path class="cls-1" d="M512.51,130.7l-2.95.07-12.69,1.07L487,126.05l0,0-.66-.19c.91.42.08,4.62-5.73,12.74-6.25,8.74-35.37,20.1-46.13,24.08-1.29.45-2.59.92-3.89,1.41h0c-16.88,6.28-36.35,14.68-49.83,28.49-32.88,33.71-41.43,69.56-33.33,78.35l12-10.44-5.62-4.13,2.67-2.29h0l3.1-2.66c-.83-1.54.37-4.22,3.05-6.51,3.11-2.64,7.08-3.78,8.87-2.53s.76,4.44-2.36,7.14c-2.69,2.32-6,3.5-8.07,3l-3.1,2.67,4.13,3L387.62,236l-9.73-6.48L375,232c.85,1.44-.24,4-2.85,6.22-3.06,2.62-7,3.75-8.79,2.51s-.68-4.33,2.38-6.9c2.6-2.19,5.81-3.29,7.79-2.82l2.94-2.49h0l2.47-2.09,11.22,7.4L400.34,225l-13.15-8.36c-2.64,1.73-5.63,2.37-7.13,1.41-1.73-1.12-.78-4,2.09-6.36s6.57-3.39,8.31-2.31c1.49.93,1.06,3.13-.89,5.25l13.16,8.3,7.16-6.23-22.75-14c-2.57,1.64-5.48,2.26-6.93,1.36-1.69-1.05-.76-3.76,2-6s6.38-3.23,8.07-2.22c1.46.88,1,3-.85,5l22.76,13.86,5.66-4.92L396.47,197l1.13-.94,1.14-.93L414.61,182c-.88-1.17-.06-3.25,2.14-5,2.55-2.09,6-3,7.73-2.1s1.08,3.41-1.47,5.53c-2.2,1.83-5.09,2.79-7,2.42l-15.88,13.13,20,11.82,17.37-15.09-9.87-5.47-5.2,4.41c.93,1.23.11,3.45-2.16,5.38-2.67,2.28-6.31,3.29-8.09,2.25s-1-3.72,1.65-6c2.27-1.9,5.2-2.89,7.12-2.5l5.2-4.4,1.08-.91,1.07-.9,11.34,6.24,6.67-5.79-14.17-7.61,1-.88,1.05-.87,5.14-4.32c-.93-1.12-.22-3.13,1.86-4.87,2.43-2,5.8-2.93,7.56-2s1.25,3.27-1.17,5.32c-2.09,1.77-4.9,2.7-6.78,2.36l-5.15,4.33,12.7,6.77L461.36,172c-1-1.13-.38-3.16,1.66-4.91,2.36-2,5.74-3,7.56-2.06s1.43,3.3-.93,5.37c-2,1.78-4.84,2.72-6.76,2.37L450,184l13.82,7.36c2.34-1.6,5.19-2.21,6.84-1.34,1.93,1,1.51,3.69-1,6s-6.15,3.33-8.08,2.27c-1.65-.89-1.51-3,.14-5l-13.82-7.42-15.46,13.48,27.77,15.79-2.2,2h0l-4.87,4.55c1.09,1.41.36,3.93-2,6.12-2.74,2.57-6.61,3.69-8.61,2.48s-1.36-4.24,1.38-6.77c2.33-2.15,5.44-3.25,7.53-2.79l4.88-4.54-26.12-15-5,4.33,7.95,4.64c2.5-1.7,5.45-2.34,7.07-1.4,1.91,1.1,1.3,4-1.39,6.39s-6.49,3.52-8.4,2.38c-1.62-1-1.34-3.23.47-5.37L423,207.52,395,232l6.75,4.4,3-2.68c-1-1.46,0-4,2.48-6.18,2.86-2.51,6.69-3.6,8.57-2.44s1.12,4.21-1.74,6.77c-2.47,2.21-5.68,3.34-7.74,2.86l-3,2.69-1.22,1.09-1.24,1.1-8.32-5.47-3.33,2.9,18.36,12.21,4.11-3.74c-1-1.53-.05-4.19,2.46-6.46,2.9-2.63,6.81-3.76,8.76-2.53s1.21,4.4-1.69,7.08c-2.5,2.31-5.79,3.48-7.91,3l-4.11,3.76-1.25,1.15-1.25,1.15-20-13.41-12.33,10.74,7.72,5.41c2.84-2,6-2.67,7.65-1.55,1.91,1.32,1,4.67-2.17,7.49s-7.28,4.06-9.18,2.69c-1.62-1.16-1.07-3.82,1.09-6.31l-7.71-5.46-22.89,20c13.64,8,82.45-9.55,116.61-48.06,15.25-17.19,18.76-35,18-48.29.56-9,2.79-26,12-32.92,9.56-7.21,17.06-11.61,18.28-11.44Z" transform="translate(-304.42 -116.33)"/></svg>