<?xml version="1.0" encoding="UTF-8" standalone="no"?>
<svg
   id="Layer_1"
   data-name="Layer 1"
   viewBox="0 0 318.80001 79.37"
   version="1.1"
   sodipodi:docname="logo-min.svg"
   width="318.79999"
   height="79.370003"
   inkscape:version="1.2.1 (9c6d41e410, 2022-07-14)"
   xmlns:inkscape="http://www.inkscape.org/namespaces/inkscape"
   xmlns:sodipodi="http://sodipodi.sourceforge.net/DTD/sodipodi-0.dtd"
   xmlns="http://www.w3.org/2000/svg"
   xmlns:svg="http://www.w3.org/2000/svg"
   xmlns:rdf="http://www.w3.org/1999/02/22-rdf-syntax-ns#"
   xmlns:cc="http://creativecommons.org/ns#"
   xmlns:dc="http://purl.org/dc/elements/1.1/">
  <sodipodi:namedview
     id="namedview82"
     pagecolor="#505050"
     bordercolor="#eeeeee"
     borderopacity="1"
     inkscape:showpageshadow="0"
     inkscape:pageopacity="0"
     inkscape:pagecheckerboard="0"
     inkscape:deskcolor="#505050"
     showgrid="false"
     inkscape:zoom="3.124752"
     inkscape:cx="192.01524"
     inkscape:cy="33.282641"
     inkscape:window-width="1920"
     inkscape:window-height="1017"
     inkscape:window-x="-8"
     inkscape:window-y="-8"
     inkscape:window-maximized="1"
     inkscape:current-layer="Layer_1" />
  <defs
     id="defs45">
    <style
       id="style43">.cls-1{fill:#231f20;}</style>
  </defs>
  <title
     id="title47">logo-min</title>
  <path
     class="cls-1"
     d="m 10.89,63.79 a 1.48,1.48 0 0 0 -1.48,1.48 c 0,0.82 1.24,2.42 2.06,2.42 0.82,0 2,-0.34 1.46,-2.14 a 2.74,2.74 0 0 0 -2,-1.76"
     id="path49" />
  <path
     class="cls-1"
     d="m 15.28,67.97 a 0.84,0.84 0 1 0 0.85,0.84 0.85,0.85 0 0 0 -0.85,-0.84"
     id="path51" />
  <path
     class="cls-1"
     d="m 32.47,73.19 c -1.82,0 -0.81,2.15 -0.81,4 0,1.85 1.74,2.21 3.55,2.21 1.81,0 0.59,-0.88 0.59,-2.7 a 3.49,3.49 0 0 0 -3.33,-3.48"
     id="path53" />
  <path
     class="cls-1"
     d="m 44.22,63.87 c -1.86,0 -2.25,1.51 -2.25,3.37 0,1.86 1,4.78 2.25,3.37 1.38,-1.61 3.16,-2.67 3.16,-4.53 0,-1.86 -1.3,-2.21 -3.16,-2.21"
     id="path55" />
  <path
     class="cls-1"
     d="M 61.21,7.66 A 7.07,7.07 0 0 0 59.64,4.87 5.74,5.74 0 0 0 56.44,3.08 8.74,8.74 0 0 0 54.69,2.9 13.52,13.52 0 0 0 53.3,2.99 c -0.31,0 -0.61,0.06 -0.9,0.06 A 6.09,6.09 0 0 1 49.14,1.84 13.39,13.39 0 0 0 47.27,0.99 c -0.38,-0.14 -0.78,-0.3 -1,-0.41 A 5.47,5.47 0 0 0 43.75,0 C 38.92,0 32.57,5.56 31.82,6.23 l -0.17,0.19 c -2.44,3 -7.34,5.3 -7.92,5.56 h -0.07 c -0.61,0.33 -14.88,8.23 -21,17.78 -5.1,7.95 -1.61,13.66 0.38,16 a 30.63,30.63 0 0 0 4.32,5.27 v 0 a 12.91,12.91 0 0 1 2.21,6.1 c 0,0 -0.57,5.24 1.79,5.8 2.36,0.56 2.55,-2.2 2.55,-2.2 0,0 0.15,-1.43 0.19,-2.1 0,0 0.3,-1.16 1.87,-0.86 a 2.56,2.56 0 0 1 1.91,1.91 c 0,0 0.24,9.67 1.25,14.28 0.74,3.37 1.75,4.39 2.68,4.87 a 2.29,2.29 0 0 0 2.37,-0.12 c 0.77,-0.54 1.51,-1.61 1.18,-3.74 -0.61,-4 -2.24,-17.07 2,-16.4 3.12,0.49 3.78,4 3.91,5.71 a 17.19,17.19 0 0 0 0.7,4 c 0.66,1.73 1.77,2.73 3.25,2.16 0,0 4.22,-0.28 0,-12.39 0,0 -0.73,-2 2.08,-2.83 2,-0.57 3.25,2.11 3.76,3.62 a 3.43,3.43 0 0 0 1.95,2.11 c 1,0.38 2.09,0.28 2.63,-1.73 a 6.58,6.58 0 0 0 -0.06,-3.52 12.65,12.65 0 0 1 2,-11 c 0.36,-0.44 0.71,-0.89 1.07,-1.35 v 0 a 5.34,5.34 0 0 0 0.64,-0.87 51.83,51.83 0 0 0 7.93,-17.27 99.07,99.07 0 0 1 3.58,-9.36 6.38,6.38 0 0 0 0.53,-1.69 15.18,15.18 0 0 0 -0.15,-6.57 m -1.32,4.43 v 0.06 0.06 a 16.79,16.79 0 0 1 -1.92,2.75 11.9,11.9 0 0 0 -1.88,3.12 c -1.64,4 -4.88,11.21 -8.2,14.6 -0.09,0.12 -13.08,15.53 -31.2,15.53 A 33,33 0 0 1 6.44,46.5 5.13,5.13 0 0 1 4.21,45.06 C 2.47,43.15 -1.05,37.91 3.75,30.43 c 6,-9.29 19.95,-17 20.54,-17.35 0.11,-0.05 5.61,-2.5 8.38,-5.92 v 0 0 c 0.27,-0.24 6.59,-5.86 11,-5.86 a 4.28,4.28 0 0 1 1.93,0.43 c 0.29,0.15 0.7,0.31 1.13,0.48 a 11.27,11.27 0 0 1 1.66,0.74 7.32,7.32 0 0 0 3.93,1.4 8.91,8.91 0 0 0 1,-0.07 12,12 0 0 1 1.26,-0.08 7.71,7.71 0 0 1 1.5,0.15 4.54,4.54 0 0 1 2.5,1.4 c 1,1.13 2.08,3.16 1.2,6.35"
     id="path57" />
  <path
     class="cls-1"
     d="M 55.05,3.8 H 54.27 L 50.91,4.09 48.29,2.55 v 0 L 48.11,2.5 c 0.24,0.11 0,1.22 -1.51,3.37 -1.66,2.31 -9.36,5.32 -12.21,6.37 l -1,0.37 v 0 c -4.47,1.66 -9.62,3.88 -13.18,7.53 -8.7,8.92 -11,18.4 -8.82,20.73 l 3.17,-2.76 -1.48,-1.1 0.7,-0.6 v 0 l 0.82,-0.7 c -0.22,-0.41 0.09,-1.12 0.8,-1.73 0.71,-0.61 1.88,-1 2.35,-0.67 0.47,0.33 0.2,1.18 -0.62,1.89 a 2.73,2.73 0 0 1 -2.14,0.79 l -0.82,0.71 1.09,0.79 6.76,-5.87 -2.57,-1.71 -0.78,0.66 c 0.22,0.38 -0.07,1.06 -0.75,1.65 -0.68,0.59 -1.86,1 -2.33,0.66 -0.47,-0.34 -0.18,-1.15 0.63,-1.83 a 2.72,2.72 0 0 1 2.06,-0.74 l 0.78,-0.66 v 0 l 0.66,-0.55 3,1.95 2.7,-2.35 -3.47,-2.21 a 2,2 0 0 1 -1.89,0.37 c -0.46,-0.29 -0.21,-1.05 0.55,-1.68 0.76,-0.63 1.74,-0.9 2.2,-0.61 0.46,0.29 0.28,0.83 -0.23,1.39 l 3.48,2.19 1.89,-1.64 -6,-3.7 a 2,2 0 0 1 -1.83,0.36 c -0.45,-0.28 -0.2,-1 0.54,-1.59 0.74,-0.59 1.69,-0.86 2.13,-0.59 0.44,0.27 0.28,0.78 -0.22,1.32 l 6,3.66 1.5,-1.3 -5.67,-3.38 0.3,-0.25 0.3,-0.24 4.2,-3.46 c -0.23,-0.31 0,-0.86 0.57,-1.34 a 2.17,2.17 0 0 1 2,-0.55 c 0.46,0.24 0.29,0.9 -0.39,1.46 a 2.5,2.5 0 0 1 -1.84,0.64 l -4.2,3.47 5.29,3.13 4.59,-4 -2.66,-1.4 -1.37,1.17 c 0.24,0.32 0,0.91 -0.57,1.42 a 2.24,2.24 0 0 1 -2.15,0.6 c -0.46,-0.28 -0.27,-1 0.44,-1.58 a 2.55,2.55 0 0 1 1.88,-0.66 l 1.38,-1.17 0.29,-0.24 0.28,-0.24 3,1.66 1.76,-1.54 -3.75,-2 0.28,-0.23 0.28,-0.23 1.36,-1.15 c -0.25,-0.29 -0.06,-0.82 0.49,-1.28 a 2.13,2.13 0 0 1 2,-0.54 c 0.47,0.23 0.33,0.86 -0.31,1.41 a 2.47,2.47 0 0 1 -1.79,0.62 l -1.36,1.14 3.36,1.79 3.42,-3 c -0.27,-0.3 -0.1,-0.83 0.44,-1.3 a 2.1,2.1 0 0 1 2,-0.54 c 0.48,0.23 0.38,0.87 -0.25,1.42 a 2.4,2.4 0 0 1 -1.79,0.63 l -3.42,3 3.66,2 a 1.94,1.94 0 0 1 1.81,-0.36 c 0.51,0.27 0.39,1 -0.26,1.58 a 2.15,2.15 0 0 1 -2.14,0.6 c -0.44,-0.23 -0.4,-0.79 0,-1.33 l -3.65,-2 -4.09,3.57 7.35,4.17 -0.59,0.55 v 0 l -1.28,1.2 c 0.28,0.37 0.09,1 -0.52,1.62 a 2.21,2.21 0 0 1 -2.28,0.66 c -0.53,-0.32 -0.36,-1.13 0.36,-1.8 a 2.5,2.5 0 0 1 2,-0.73 l 1.29,-1.2 -6.91,-4 -1.32,1.15 2.11,1.23 a 2,2 0 0 1 1.87,-0.38 c 0.5,0.3 0.34,1.05 -0.37,1.69 a 2.2,2.2 0 0 1 -2.22,0.64 c -0.43,-0.26 -0.36,-0.86 0.12,-1.43 l -2.1,-1.23 -7.42,6.47 1.79,1.16 0.8,-0.71 c -0.25,-0.38 0,-1.06 0.65,-1.63 0.65,-0.57 1.77,-1 2.27,-0.65 0.5,0.35 0.3,1.11 -0.46,1.79 a 2.58,2.58 0 0 1 -2.05,0.76 l -0.8,0.71 -0.32,0.29 -0.33,0.29 -2.2,-1.45 -0.88,0.77 4.85,3.23 1.09,-1 c -0.26,-0.4 0,-1.11 0.65,-1.71 0.65,-0.6 1.8,-1 2.32,-0.67 0.52,0.33 0.32,1.17 -0.45,1.88 a 2.58,2.58 0 0 1 -2.09,0.78 l -1.09,1 -0.33,0.3 -0.33,0.3 -5.28,-3.54 -3.19,2.91 2,1.43 c 0.75,-0.52 1.59,-0.71 2,-0.41 0.41,0.3 0.25,1.24 -0.57,2 -0.82,0.76 -1.93,1.08 -2.43,0.71 -0.5,-0.37 -0.28,-1 0.29,-1.67 l -2,-1.44 -6.06,5.28 c 3.63,2.1 21.83,-2.59 30.83,-12.77 a 17.56,17.56 0 0 0 4.76,-12.78 c 0.15,-2.38 0.74,-6.88 3.18,-8.71 2.44,-1.83 4.51,-3.07 4.83,-3 z"
     id="path59" />
  <path
     class="cls-1"
     d="m 145.16,32.17 c 0,6.72 -4.7,11.54 -11.55,11.54 h -12.49 v 7.07 h -11.2 V 20.62 h 23.69 c 6.85,0 11.55,4.83 11.55,11.55 z m -11.2,0 c 0,-2.07 -1.38,-2.07 -2.5,-2.07 h -10.34 v 4.13 h 10.34 c 1.1,0 2.5,0 2.5,-2.06 z"
     id="path61" />
  <path
     class="cls-1"
     d="m 167.64,45.39 h -12.83 l -2.07,5.43 h -12.32 l 12.49,-30.16 h 16.65 l 12.49,30.16 h -12.34 z m -2.93,-7.76 -3.49,-9.24 -3.49,9.21 z"
     id="path63" />
  <path
     class="cls-1"
     d="m 218.13,32.17 c 0,6.72 -4.7,11.54 -11.55,11.54 h -12.49 v 7.07 h -11.2 V 20.62 h 23.67 c 6.87,0 11.57,4.83 11.57,11.55 z m -11.2,0 c 0,-2.07 -1.38,-2.07 -2.5,-2.07 h -10.34 v 4.13 h 10.34 c 1.13,0 2.5,0 2.5,-2.06 z"
     id="path65" />
  <path
     class="cls-1"
     d="m 240.61,45.39 h -12.83 l -2.07,5.43 h -12.32 l 12.49,-30.16 h 16.68 l 12.49,30.16 h -12.37 z m -2.92,-7.76 -3.49,-9.24 -3.49,9.21 z"
     id="path67" />
  <path
     class="cls-1"
     d="m 245.09,20.62 h 12.93 l 8,11.2 8,-11.2 h 12.94 l -15.33,20.25 v 9.91 h -11.2 v -9.91 z"
     id="path69" />
  <path
     class="cls-1"
     d="m 304.28,45.39 h -12.83 l -2.07,5.43 h -12.32 l 12.5,-30.2 h 16.63 l 12.49,30.16 h -12.33 z m -2.93,-7.76 -3.49,-9.24 -3.49,9.21 z"
     id="path71" />
  <rect
     class="cls-1"
     x="-84.370003"
     y="-63.46999"
     width="0.81"
     height="54.540001"
     transform="scale(-1)"
     id="rect79" />
  <metadata
     id="metadata368">
    <rdf:RDF>
      <cc:Work
         rdf:about="">
        <dc:title>logo-min</dc:title>
      </cc:Work>
    </rdf:RDF>
  </metadata>
</svg>
